<?xml version="1.0" encoding="UTF-8" standalone="no"?> <svg id="Layer_1" data-name="Layer 1" xmlns="http://www.w3.org/2000/svg" viewBox="0 0 64 64"><defs><style>.cls-1{fill:#b6dedc;}.cls-2{fill:#344496;}.cls-3{fill:#d8efed;}.cls-4{fill:#4bad32;}.cls-5{fill:#4cd625;}.cls-6{fill:#5d6db2;}.cls-7{fill:#fcd821;}.cls-8{fill:#ec322c;}.cls-9{fill:#616161;}.cls-10{fill:#74dd37;}</style></defs><title>social-activity-group-activity-recreation-community-society</title><rect class="cls-1" x="2" y="2" width="60" height="36" rx="10.597" ry="10.597"/><path class="cls-2" d="M9.344,52.229a4,4,0,1,0-4.687,0A3.915,3.915,0,0,0,2,55.927V62H12V55.927A3.915,3.915,0,0,0,9.344,52.229Z"/><path class="cls-3" d="M4,27.4V12.6A10.6,10.6,0,0,1,14.6,2h-2A10.6,10.6,0,0,0,2,12.6V27.4A10.6,10.6,0,0,0,12.6,38h2A10.6,10.6,0,0,1,4,27.4Z"/><circle class="cls-4" cx="14" cy="12" r="6" transform="translate(-4.385 13.414) rotate(-45)"/><circle class="cls-5" cx="14" cy="12" r="6" transform="translate(-4.385 13.414) rotate(-45)"/><path class="cls-6" d="M5.656,52.229A3.977,3.977,0,0,1,7.5,45.05,3.949,3.949,0,0,0,7,45a3.991,3.991,0,0,0-2.344,7.229A3.915,3.915,0,0,0,2,55.927V62H3V55.927A3.915,3.915,0,0,1,5.656,52.229Z"/><path class="cls-2" d="M25.344,52.229a4,4,0,1,0-4.687,0A3.915,3.915,0,0,0,18,55.927V62H28V55.927A3.915,3.915,0,0,0,25.344,52.229Z"/><path class="cls-6" d="M21.656,52.229A3.977,3.977,0,0,1,23.5,45.05,3.949,3.949,0,0,0,23,45a3.991,3.991,0,0,0-2.344,7.229A3.915,3.915,0,0,0,18,55.927V62h1V55.927A3.915,3.915,0,0,1,21.656,52.229Z"/><path class="cls-2" d="M43.344,52.229a4,4,0,1,0-4.687,0A3.915,3.915,0,0,0,36,55.927V62H46V55.927A3.915,3.915,0,0,0,43.344,52.229Z"/><path class="cls-6" d="M39.656,52.229A3.977,3.977,0,0,1,41.5,45.05,3.949,3.949,0,0,0,41,45a3.991,3.991,0,0,0-2.344,7.229A3.915,3.915,0,0,0,36,55.927V62h1V55.927A3.915,3.915,0,0,1,39.656,52.229Z"/><path class="cls-2" d="M59.344,52.229a4,4,0,1,0-4.687,0A3.915,3.915,0,0,0,52,55.927V62H62V55.927A3.915,3.915,0,0,0,59.344,52.229Z"/><path class="cls-6" d="M55.656,52.229A3.977,3.977,0,0,1,57.5,45.05,3.949,3.949,0,0,0,57,45a3.991,3.991,0,0,0-2.344,7.229A3.915,3.915,0,0,0,52,55.927V62h1V55.927A3.915,3.915,0,0,1,55.656,52.229Z"/><rect class="cls-7" x="24" y="7" width="14" height="18"/><path class="cls-8" d="M54.1,6.872a3.169,3.169,0,0,0-4.368,0l-.728.7-.728-.7a3.169,3.169,0,0,0-4.368,0,2.9,2.9,0,0,0,0,4.213l.728.7L49,16l4.367-4.213.728-.7A2.9,2.9,0,0,0,54.1,6.872Z"/><polygon class="cls-2" points="31 12 28 16 31 20 34 16 31 12"/><circle class="cls-4" cx="49" cy="27" r="7"/><path class="cls-9" d="M49,32a3,3,0,0,1-3-3h2a1,1,0,0,0,2,0h2A3,3,0,0,1,49,32Z"/><polygon class="cls-8" points="8 22 20 22 20 29 17 29 18 34 12 29 8 29 8 22"/><path class="cls-10" d="M14.334,17.991a5.98,5.98,0,0,0-6.312-6.312,5.98,5.98,0,0,0,6.312,6.312Z"/><path class="cls-10" d="M19.991,12.334a5.98,5.98,0,0,0-6.312-6.312,5.98,5.98,0,0,0,6.312,6.312Z"/><circle class="cls-9" cx="46" cy="25" r="1"/><circle class="cls-9" cx="52" cy="25" r="1"/></svg>