<?xml version="1.0" encoding="UTF-8" standalone="no"?> <svg id="Entrepreneur" xmlns="http://www.w3.org/2000/svg" viewBox="0 0 256 256"><title>Expertise</title><g id="Expertise"><path d="M191,13.27c-18.53-10.13-35.09-11-46-4l-20.62,13L123.19,31l8.55,1.14a49.68,49.68,0,0,0-.43,6.6c0,24.24,15.26,53.34,36.93,73.9l74.45-42.06C232.37,47.58,213.1,25.35,191,13.27Z" style="fill:#e8ae00"/><path d="M168.24,112.64A110.83,110.83,0,0,0,191,129.47a69.7,69.7,0,0,0,21.59,7.86L216,147l21-13.49c8.53-5.38,13.65-15.46,13.65-29.51,0-10.59-2.92-22.1-8-33.42Z" style="fill:#c77e00"/><polygon points="192 142 192 145 192 165 210 155 210 138 192 142" style="fill:#c77e00"/><polygon points="192 165 192 215 210 205 210 155 192 165" style="fill:#1f5c9c"/><path d="M170.89,26.29c-18.46-10.27-35-11.23-46-4.4C116.31,27.21,111.11,37.25,111,51.3c-.16,20.92,11.11,45.55,28,65.23a37.29,37.29,0,0,1,9,24.29V141l44,24A14.06,14.06,0,0,1,204.42,151,28.4,28.4,0,0,0,216,147c8.57-5.32,13.81-15.47,13.92-29.52C230.17,85.4,203.71,44.57,170.89,26.29Z" style="fill:#ffd900"/><polygon points="148 141 148 190 192 215 192 165 148 141" style="fill:#639deb"/><polygon points="148 151 192 175 192 184 148 160 148 151" style="fill:#fffbdb"/><polygon points="148 170 192 195 192 204 148 179 148 170" style="fill:#fffbdb"/><polygon points="192 175 210 165 210 174 192 184 192 175" style="fill:#81bad4"/><polygon points="192 195 210 185 210 194 192 204 192 195" style="fill:#81bad4"/><polygon points="162 139 175 146 175 105 162 99 162 139" style="fill:#c77e00"/><ellipse cx="168.19" cy="80.77" rx="11.71" ry="19.21" transform="translate(-14.09 120.62) rotate(-37.98)" style="fill:#fffbdb"/><path d="M128.85,46.81l-9.32-3.62c3-7.74,14.24-20.61,35.18-13.95l-3,9.52C134.34,33.25,129.07,46.26,128.85,46.81Z" style="fill:#fffbdb"/><polygon points="124 200 124 116 102 130 102 213 124 200" style="fill:#107054"/><polygon points="124 116 106 106 83 119 102 130 124 116" style="fill:#0ec478"/><polygon points="102 130 102 213 83 202 83 119 102 130" style="fill:#089970"/><polygon points="93 219 93 156 72 168 72 231 93 219" style="fill:#c77e00"/><polygon points="93 156 76 146 54 159 72 168 93 156" style="fill:#ffd900"/><polygon points="72 168 72 231 54 221 54 159 72 168" style="fill:#e8ae00"/><polygon points="64 235 64 199 42 212 42 248 64 235" style="fill:#912621"/><polygon points="64 199 46 189 23 203 42 212 64 199" style="fill:#ff5d42"/><polygon points="42 212 42 248 23 237 23 203 42 212" style="fill:#c73d2c"/><polygon points="68 62 68 44 58.06 39 58 57 44 49 44 60 58 68 58 86 68 92 68 74 75 78 83 83 83 70 68 62" style="fill:#ffd900"/><polygon points="75 40 68 44 58.06 39 65 35 75 40" style="fill:#e8ae00"/><polygon points="75 40 75 58 68 62 68 44 75 40" style="fill:#c77e00"/><polygon points="58 49 58 57 44 49 51 45 58 49" style="fill:#e8ae00"/><polygon points="75 58 90 66 83 70 68 62 75 58" style="fill:#e8ae00"/><polygon points="90 66 90 79 83 83 83 70 90 66" style="fill:#c77e00"/><polygon points="68 92 75 88 75 78 68 74 68 92" style="fill:#c77e00"/></g></svg>